<svg viewBox="0 0 110.79 237.79" xmlns="http://www.w3.org/2000/svg"><path d="m108.87 158.45c-3.77-.61-8.09.73-11.94 1.19-2.83-.22-17.75 8.2-22.29 13.47-.55-14.4-1.42-28.78-2.42-43.15-2.01-33.24-.01-66.52 3.53-99.59 4.34-4.19 3.44-10.97 4.95-16.44.21-4.44 3.44-9.65.49-13.64-5.9-2.65-30.11 14.02-32.03 20.12-1.45 5.82-2.53 11.72-2.82 17.72.05 1.86-3.72 10.78-.52 10.03-1.3 31.55-1.04 63.14 2.2 94.58 1.65 14.93 3.27 29.85 4.35 44.83.16 7.02 1.5 14.72.16 21.74-11.61-11.06-22.82-26.14-31.47-34.38-4.83-1.33-18.27 8.46-20.96 12.65-1.02 1.87 5.73 7.24 6.97 9.38 3.43 3.94 6.9 7.84 10.35 11.77 9.82 10.74 19.27 23.96 33.82 28.3 15.2 4.53 36.95-11.92 43.99-24.72 6.77-13.16 9.4-27.84 13.79-41.85 1.17-3.6 3.38-9.14-.15-12zm-24.95 30.69c-2.9 11.25-4.82 22.87-9.59 33.54-4.42-.68-8.99-3.03-13.57-6.39 11.41-7.99 15.28-16.22 14.26-31.21-.07-2.89-.16-5.78-.26-8.67 3.6-.47 7.22-1.59 10.88-1.79 2.84 4.47-1.01 9.87-1.72 14.52z"/></svg>