<svg viewBox="0 0 108.19 188.54" xmlns="http://www.w3.org/2000/svg"><g><path d="m30.91 108.83c-.22 3.89-.49 7.78-.83 11.66.12 2.96-1.95 7.39 1.41 9.08 8.66 4.61 18.81 7.09 28.63 7.09.69-.09 3.31-.26 2.56-1.76-2.2-4.25-3.68-8.88-4.75-13.52-3.14-19.85-1.84-40.18-3.08-60.22 2.06.19 10.38 2.34 10.43-.58-3.42-16.81-8.01-33.34-12.14-49.98 1-7.92-16.5-10.05-22.36-10.51-4.58-.76-3.38 3.58-3.69 6.58.12 4.61.49 9.22.77 13.83 1.75 29.4 4.4 58.89 3.05 88.35z"/><path d="m106.38 84.79c-6.61.07-15.18 1.64-20.38 5.81-.39 1.39-6.65 8.71-4.13 8.77-10.97 24.35-20.75 49.25-33.78 72.62-7.85-15.57-14.9-31.55-23.82-46.6-4.31-2.82-18.45 1.86-22.88 4.38-.26.17-1.66 1.03-1.35 1.62 4.88 9.24 9.65 18.53 14.42 27.83 4.48 7.53 11.13 30.63 21.46 29.27 8.94-.51 19.11-2.23 26.13-8.1 3.53-4.8 6.02-10.34 8.98-15.51 9.18-17.56 17.68-35.46 25.41-53.69 3.7-8.49 7.65-16.86 11.66-25.21.47-.98-1.17-1.13-1.72-1.18z"/></g></svg>