<svg viewBox="0 0 152.29 256.54" xmlns="http://www.w3.org/2000/svg"><path d="m122.25 166.23c-5.9 11.58-10.12 23.65-14.45 35.68-.06-3.09-14.31 3.53-15.95 4.44-.31-61.97-4.5-123.84-6.72-185.76.79-6.02-1.32-13.51 3.33-18.58.38-.34 1.43-1.27 1-1.85-5.39-1.46-23.14 7.18-25.83 11.48 5.31 56.48 5.16 113.38 3.61 170.07-.02 1.45-.03 2.9-.05 4.34-14.52-7.38-29.23-14.88-41.24-24.74-5.88-1.33-19.29 6.04-23.81 9.26-.68.52-2.57 1.78-2.07 2.74 2.79 5.79 6.76 11.16 10.21 16.72 10.84 15.88 21.92 31.75 34.66 46.72 8.49 8.36 18.49 24.2 34.72 18.61 21.69-6.72 34.14-16.45 42.36-33.76 10.93-22.27 16.53-46.08 30.14-67.54 2.39-6.7-30.01 8.65-29.92 12.17zm-55.64 55.5c-3.71-4.99-7.11-10.07-10.53-14.62 3.14-.28 7.02-1.32 10.89-2.8-.09 5.81-.2 11.62-.36 17.41zm22.74 21.12c-4.66-2.36-8.73-5.49-12.4-9.04 3.47-1.52 6.8-3.37 8.88-4.48 1.86-1.18 4-2.36 4.99-4.14 4.88-7.81 10.81-15.16 16.69-22.5-4.95 13.72-10.11 27.37-18.17 40.16z"/></svg>