<svg viewBox="0 0 164.55 420.97" xmlns="http://www.w3.org/2000/svg"><path d="m141.49 300.18c-1.05.1-2.8.15-3.35 1.25-1.81 3.63-3.62 7.25-5.43 10.88-4.53 8.66-8.66 17.51-12.44 26.5-.38-4.45-.59-8.91-.52-13.37 1.04-36.97 4.55-73.85 6.21-110.81-.12-19.69 2.35-39.85-2.07-59.21-1.34-11.73-10.59-14.07-20.65-15.82-6.37-1.06-12.96-1.9-19.39-.86-3.63.35-5.34 3.69-7.26 6.32-22.67 29.69-29.14 67.98-48.78 99.22-6.99-25.26-2.1-52.08 2.11-77.43 8.44-48.47 21.7-96.99 15.96-146.59 1.36-.25 5.38-.28 4.5-2.54-2.06-3.74-3.96-7.58-5.88-11.4-5.57-4.31-13.46-4.78-20.25-5.85-4.55-.41-9.35-.94-13.8.31-2.34.64-1.01 3.42-.7 5.11 1.42 4.95 1.64 10.15 2.47 15.23 11.5 65.61-12.94 130.11-12.2 195.61.97 10.86 1.06 35.12 13.11 39.24 12.34 3.76 31.37 8.54 40.69-3.18 10-10.83 14.86-25.07 20.43-38.45 5.51-14.85 11.13-29.76 18.34-43.89 1.53 43.74.62 87.53-.71 131.27-.5 14.53-.79 29.08-2.34 43.55 2.37 4.16 16.98 6.41 25.66 6.22-5.18 13.66-9.62 27.62-13.45 41.72-7.58-16.76-12.88-34.46-19.19-51.72 1.83-.24 7.88.27 7.11-2.59-4.75-4.37-8.98-9.41-14.15-13.27-3.74-3.29-33.55-9.01-34.11-3.04 13.06 24.61 20.63 51.8 34.11 76.26 3 5.75 5.78 12.04 10.7 16.42 9.15 5.16 25.49 7.42 35.53 4.27 10.57-6.61 11.31-27.14 15.31-38.33 6.57-26.22 15.73-51.6 27.49-75.94-2.52-4.23-18.08-5.48-23.06-5.08z"/></svg>