<svg viewBox="0 0 92.68 257.52" xmlns="http://www.w3.org/2000/svg"><g><path d="m45.78 166.33c2.23 5.29 8.23 9.83 13.62 12.77.25.09 2.04.85 1.97-.11-.8-7.3-1.58-14.6-2.41-21.91-1.99-19.11-4.78-38.17-5.83-57.34 4.27 4.23 8.8 8.79 14.81 11.1 12.13 3.01-1.5-8.27-4.29-10.7-4.04-24.19-6.84-48.55-10.79-72.76-1.87-11.3 1.59-14.39-9.57-22.88-10.51-8.37-8.9-4.13-9.45 5.07-1.59 42.97 1.72 85.86 8.22 128.45 1.28 9.43 2.52 18.87 3.73 28.31z"/><path d="m77.04 148.25c-4.06-2.25-5.5-3.57-6.18 1.5-7.31 26.27-13.92 52.72-21.59 78.9-7.14-17.06-15.14-33.83-23.41-50.49 12.45 6.38-2.9-8.61-4.53-10.94-3.57-7.92-10.27-14.75-18.68-19.07-7.23-2.78 2.61 10.9 2.99 13.07 9.42 18.73 18.65 37.56 26.51 56.89 6.8 15.79 10.04 29.89 28.19 39.04 5.35 1.87 8.89-3.59 9.91-7.51 2.91-8.06 4.85-16.34 6.69-24.62 4.34-20.49 9.46-40.86 15.74-60.97-2.58-6.59-9.61-11.5-15.64-15.79z"/></g></svg>