<?xml version="1.0" encoding="UTF-8"?><svg id="a" xmlns="http://www.w3.org/2000/svg" viewBox="0 0 2000 2000"><path d="M1912.37,1923.18c-110.24,0-220.48-.04-330.72,.12-5.62,0-9.55-1.53-13.54-5.55-34.08-34.36-68.38-68.49-102.62-102.69-1.25-1.25-2.42-2.58-4.62-4.93h341.37v-332.55c.61-.33,1.21-.65,1.82-.98,36.1,36,72.2,72,108.31,108v338.58Z" fill="#fff"/><path d="M1912.37,407.34c-35.85,36.16-71.71,72.32-107.56,108.48-.68-.35-1.35-.69-2.03-1.04V180.84h-340.65c2.23-2.53,3.28-3.85,4.46-5.03,34.04-34.03,68.02-68.13,102.31-101.91,2.88-2.84,7.92-4.92,11.97-4.93,110.5-.26,221-.21,331.5-.21V407.34Z" fill="#fff"/><path d="M864,558.35c10.44,2.56,12.04,5.51,7.58,13.98,2,2.12,3.99,4.23,6.24,6.61,1.24-1.91,2.35-3.6,3.63-5.57,3.56,7.03,6.87,13.56,9.88,19.51,7.08-2.01,13.01-4.99,18.96-5.04,6.83-.05,8.04,7.21,11.62,12.91-6.94,.68-12.89,1.26-20.96,2.05,7.33,5.67,10.09,13.58,18.87,14-.15,1.35-.3,2.69-.45,4.04,1.78-.42,3.55-.83,5.7-1.33-.13,11.76,8.58,17.88,17.91,22.07,4.89,2.2,18.46-8.12,20.04-13.25,.73,0,1.72-.31,2.23,.05,10.97,7.64,25.38,9.57,34.27,20.73,1.23,1.54,3.59,2.18,5.45,3.25-1.12,.6-2.21,1.56-3.4,1.72-7.89,1.02-8.11,1.29-5.43,10.68,3.23-4.74,5.91-8.68,8.6-12.62,1.12-.24,2.61-.09,3.3-.76,9.78-9.59,19.46-19.29,29.15-28.97,5.49-5.49,11.99-10.36,15.99-16.78,1.86-2.98-.8-9.1-2.09-13.6-.97-3.37-3.04-6.42-4.62-9.61,1.07-.69,2.14-1.39,3.22-2.08,2.3,3.11,4.61,6.23,7.35,9.94,2.15,.67,5.44,1.69,8.4,2.61,31.56-31.56,63.19-63.18,95.2-95.2-1.36-2.48-3.03-5.52-4.7-8.56,.53-.57,1.06-1.14,1.58-1.71,2.57,1.99,5.15,3.99,7.34,5.68,18.56-18.58,37.74-37.77,57.52-57.56-.3-.62-1.15-2.35-2.71-5.54,3.26-.27,5.93-.48,8.61-.7,.17,.63,.34,1.26,.51,1.89,12.01-12.14,24.15-24.16,35.9-36.53,1.75-1.84,2.25-5.34,2.39-8.12,.2-3.83-1.15-7.82-.56-11.53,.46-2.86,3.12-7.76,4.39-7.63,3.24,.33,6.4,2.75,9.28,4.77,1.07,.75,1.29,2.71,1.34,2.82,5.32-1.2,10.01-3.18,14.71-3.19,79.46-.19,158.92-.14,238.38-.14h62.47v8.41c0,97.84,.06,195.68-.21,293.52-.01,4.05-2.08,9.07-4.89,11.98-18.35,18.98-37.25,37.42-55.74,56.26-2.16,2.2-2.79,5.84-4.44,8.63-.85,1.44-2.21,2.71-3.61,3.67-4.27,2.95-9.31,5.08-12.92,8.67-37.5,37.18-74.76,74.58-112.11,111.91-11.86,11.85-23.79,23.63-35.61,35.37,.35,6.85,.69,13.4,1.04,20.25-1.11,.59-3.37,1.8-5.63,3,1.6,2.17,3.39,4.23,4.75,6.54,1.82,3.1,3.31,6.39,4.94,9.59-1.07,.57-2.13,1.13-3.2,1.7-4.32-7.01-8.63-14.02-13.97-22.7-1,3.38-2.63,5.82-2.02,7.41,2.29,5.95-1.4,14.65,8.25,17.65,1.34,.42,.87,6.63,1.37,11.33,2.64-.99,4.84-2.1,7.17-2.54,1.11-.21,2.46,.86,3.7,1.35-.8,.95-1.42,2.22-2.43,2.78-1.61,.89-3.47,1.31-6.46,2.35,4.72,2.13,8.05,3.63,12.35,5.57-4.5,4.4-8.27,7.86-11.73,11.61-1.01,1.1-1.14,3.01-1.67,4.56,1.59,.4,3.17,.8,5.3,1.34-.59,1.72-1.2,3.52-1.84,5.37,5.32-.31,10.42-.61,15.53-.91,0,0-.27-.28-.27-.28-1.71,3.04-3.42,6.08-5.62,10,4.7,1.07,9.27,2.11,11.89,2.71-6.22,7.69-13.26,16.39-21.78,26.92,7.43-1.98,12.49-3.33,18.46-4.93,1.05,2.17,2.69,5,3.85,8.02,2.98,7.75,9.37,15.93-3.54,21.76,4.18,3.45,7.27,5.99,10.36,8.53l-.7,1.86c-1.85-.64-3.7-1.26-5.54-1.91-2.1-.75-4.19-1.53-6.31-2.29-.2-2.18-1.06-4.63-.37-6.51,.77-2.1,2.95-3.69,4.56-5.55-5.9-3.71-10.86-6.82-16.66-10.47-.98,2.37-1.82,4.39-2.68,6.45,3.9,.53,6.69,.91,9.48,1.29,.17,1.08,.34,2.16,.5,3.24-5.83,1.91-11.66,3.81-17.49,5.72,.07,.82,.15,1.64,.22,2.45,6.87-4.58,12.51-3.51,17.53,2.09,.94,1.05,3.27,.84,4.96,1.22,1.31,1.49,2.86,2.84,3.86,4.52,1.19,1.98,1.92,4.25,2.85,6.39-2.37,.33-4.94,1.38-7.07,.81-2.46-.66-4.53-2.76-7.97-3.03,.56,1.13,.89,2.49,1.72,3.34,10.09,10.27,20.13,20.59,30.51,30.56,1.82,1.75,5.15,1.93,8.12,2.95,.15,6.21,9.43,17.28,16.69,19.25,1.38,.38,3.7,1.38,3.7,2.09-.05,8.57,7.49,11.62,12.16,16.37,27.57,28.06,55.55,55.72,83.26,83.64,1.95,1.96,2.89,4.92,4.31,7.42l3.1-2.02c.7-3.13,1.46-6.25,2.1-9.39,1.81-8.87,7.52-14.23,15.64-14.61,8.98-.41,18.71,5.48,21.24,12.86,2.4,7-.89,14.78-8.94,19.56-4.81,2.85-10.13,4.87-15.93,7.6,12.93,12.91,25.58,25.81,38.57,38.36,3.83,3.7,5.46,7.43,5.43,12.82-.23,36.75-.31,73.51-.03,110.26,.11,14.97-.34,29.93-.14,44.9,.22,15.79,.05,31.58,.05,47.36s0,31.06,0,46.59c0,15.79,0,31.58-.01,47.36,0,1.5-.14,3-.26,5.32h-87.09c-31.91,0-63.82-.07-95.73,.1-3.4,.02-6.77,1.55-10.18,2.21-1.98,.38-4.2,1.04-6,.52-18.34-5.35-36.76-3.24-55.23-1.14-2.28,.26-4.72-.87-7.55-1.45-.77,3.02-1.57,6.16-2.14,8.42,1.69,2.68,3.01,4.79,4.34,6.9-7.88-2.77-18.42-2.93-14.16-16.69-10.04,1.23-19.1,2.54-28.2,3.31-2.21,.19-5.16-.79-6.73-2.31-3.69-3.58-6.75-7.81-10.07-11.78l-2.41,1.3c-.23,2.17-.47,4.35-.76,7.05-4.81-.09-11.46,2.28-12.93-5.54-.33-1.77,5.13-4.63,8.67-7.63,.27,.35-.71-1.24-1.99-2.53-9.29-9.37-18.71-18.63-27.95-28.05-4.74-4.83-9.12-9.86-17.04-6.28-1.21,.55-3.26-.76-4.93-1.21-1.13-4.22,6.37-8.95-.71-12.87-.19-.19-.37-.38-.56-.56-3-6.78-7.94-11.23-15.1-14.29,1.17-6.25-3.35-5.04-8.84-2.87,1.66-7.64,.7-12.26-8.33-9.43-1.84,.58-4.66-1.94-7.62-3.31,.2,3.33,.4,6.8,.63,10.73-.94,0-2.79-.03-4.64,0-9.73,.16-8.88-.43-6.09-9.91,1.93-6.55,6.79-14.44,.6-22.91-5.52,8.18-8.92,5.81-12.43-.94-.85-1.64-5.07-2.22-7.68-2.09-4.72,.23-9.4,1.37-16.3,2.48,.97,6.19,2.12,13.58,3.47,22.21-3.44-1.61-5.47-2.55-8.1-3.79,.08,10.99-7.46,8.28-12.23,7.7-2.3,3.84-4.11,6.86-7.08,11.81,1.88,1.36,5.4,3.09,7.73,5.82,2.61,3.06,4.14,7.04,7.16,12.44-5.53-.26-7.97-.37-10.84-.5-.66,1.45-1.32,3.06-2.11,4.61-1.17,2.29-2,6.02-3.73,6.51-5.25,1.49-11.61,3.71-16.16,2-6.99-2.63-14.18-7.27-18.66-13.09-2.57-3.33,.22-10.66,.24-16.2,0-2.72-.8-5.44-1.24-8.17-1-.47-1.99-.94-2.99-1.41,3.09-1.68,6.17-3.35,10.19-5.53-2.32-.34-3.95-.58-6.86-1,6.08-8.6,19.2-11.04,17.16-25.14,5.73,1.94,10.24,3.46,14.77,4.99,6.78-4.55,13.87-9.31,21.08-14.15-.13-1.68-1.47-5.29-.26-6.7,1.34-1.55,5.01-1.32,7.68-1.43,4.58-.19,9.18-.05,13.95-.44-4.95-1.52-2.28-12.55-11.08-8.1,1.85-8.61-6.06-9.52-9.43-13.65-5.2-6.36-11.86,.2-16.78-2-1.68,4.97-2.38,10.34-5.1,14.32-3.75,5.47-7.54,4.61-10.06-1.57-1.84-4.51-3.14-9.24-4.14-12.25-4.52,.28-10.02,2.18-11.7,.42-4.5-4.71,.35-8.04,3.43-10.28-.2-4.16-.37-7.62-.53-11.09l-.19,.19c3.7,.8,7.4,1.59,12.04,2.59,.28-.39,1.7-2.4,4.19-5.92,.54,3.38,.83,5.2,1.16,7.31,3.82-3.83,4.61-7.16,.16-11.03-4.08-3.56-7.53-7.86-11.69-11.32-1.45-1.2-4.18-.86-7.71-1.46v-7.55c-3.86,2.3-6.52,3.94-9.25,5.49-1.44,.82-2.99,1.47-4.48,2.19-.52-1.47-1.49-2.94-1.47-4.4,.05-5.32,.61-10.64,.56-15.96-.01-1.17-1.74-2.33-2.66-3.47-3.39,2.23-6.3,5.26-9.71,6.03-2.63,.59-5.91-1.65-9.72-2.9-.43,1.76-1.22,5.02-2.29,9.37-1.68-2.26-2.91-3.9-4.37-5.86-.45,2.39-.86,4.59-1.47,7.83-1.49-1.85-2.24-2.78-3.19-3.96-1.4,1.82-2.76,3.59-4.17,5.42,2.3,.46,4.57,.58,6.53,1.42,1.33,.57,2.21,2.17,3.3,3.31-1.04,.92-1.96,2.05-3.14,2.73-11.28,6.5-23.88,11.31-27.57,26.2-.84,3.4-5.12,5.94-8.1,9.18q1.84,3.47,11.22,2.64c.76,2.24,1.56,4.6,3.02,8.89-5.37,1.3-11.73,4.91-15.17,3.07-3.2-1.71-3.3-9.22-4.99-14.91-1.38,.46-3.92,1.3-5,1.66-4.76-3.76-8.76-6.97-12.81-10.11-2.61-2.02-5.27-3.99-7.97-5.89-1.04-.73-2.54-1.99-3.35-1.69-7.89,2.94-12.02-1.81-15.72-7.84-2.05,1.46-3.79,2.71-4.6,3.28-2.12-2.32-3.58-4.25-5.37-5.8-4.22-3.68-10.86-6.67-2.56-12.96,.56-.43-.65-3.19-1.11-5.21-4.37,2.34-8.94,9.77-12.67,2.57-1.84-3.56,2.38-10.27,3.85-15.55,4.4,2.57,8.8,5.14,13.21,7.72,.59,1.51,1.18,3.02,1.76,4.53,1.61-2.96,2.74-6.37,4.96-8.76,2.05-2.21,5.15-3.63,8.03-4.8,.91-.37,3.74,1.13,3.78,1.87,.56,10.59-3.63,16.1-15.3,20.4,2.19,3.14,4.34,6.2,6.49,9.28,8.7-6.73,12.61-6.51,20.1,2.35,4.41-16.3,16.07-20.94,31.79-18.76,.14,.49,.69,2.53,1.11,4.05,3.6-.54,6.82-.49,9.53-1.63,1.76-.74,3.33-3.03,4.06-4.97,4.67-12.4,6.28-13.24,18.43-7.98,.81-3.2,1.59-6.31,2.37-9.41,1.92-1.55,4.07-4.62,5.71-4.37,6.5,1.01,4.62-3.21,5.28-6.58-3.75,1.27-6.96,2.36-10.83,3.68v7.4c-2.5,1.06-4.98,2.96-7.51,3.01-5.07,.11-8.41-2.95-8.38-8.16,.05-7.31,4.89-8.87,10.74-8.19v-13.28c-4.04-3.79-9.11-8.55-14.62-13.72-2.79,1.13-6.21,2.51-10.62,4.3,.92-2.73,1.56-4.63,2.22-6.57-7.94,.77-10.66-2.2-10.61-10.37,.02-3.65-1.19-7.31-2.04-12.09-6.06,4.1-6.78,12.43-17,8.51,2.57,4.77,4.14,7.71,5.79,10.77-.64,.35-1.74,.95-4.38,2.38,6.03,1.95,10.57,3.42,15.55,5.03-5.3,10.38-15.41,3.77-22.71,6.67-2.77-2.02,3.71-9.66-3.94-9.04-2.62,5.09-4.97,9.64-7.53,14.61,3.6,6.44,2.84,9.37-3.98,13.78-3.36,2.17-6.58,4.55-9.85,6.83-8.91-2.45-18.2-5-26.79-7.36-4.51,3.83-9.86,7.38-13.83,12.1-2.45,2.91-3.73,7.55-3.92,11.48-.62,12.99-7.75,17.64-19.27,11.99-5.69,2.87-6.31,6.94-4.27,12.78,.99,2.84,.49,7.98-1.43,9.6-2.3,1.94-6.85,4.93-10.53-.34-.62-.88-6.36,.27-8.24,2.06-11.44,10.85-22.46,22.15-33.61,33.3-36.78,36.78-73.5,73.6-110.4,110.26-4.13,4.11-5.96,7.96-5.59,14.15,1.35,22.44,1.78,44.93,2.6,68.4,.89,.43,3.05,1.45,5.2,2.47l-.3,1.81c-2.1-.24-4.21-.49-6.56-.76-2.11,11.85-5.47,23.16-17.96,28.64-14.22,6.24-25.95,2.37-30.39-12.45-3.8-12.68-4.69-26.29-6.27-39.55-.76-6.34-.13-12.84-.13-19.96H360.84v-8.87c0-35.97-.07-71.94,.08-107.91,.02-4.94-.93-8.37-5.21-11.78-11.01-8.76-10.73-20.41,.43-29.37,3.7-2.97,5-5.94,4.79-10.45-.32-6.97,.24-13.99-.23-20.95-.22-3.17,3.17-8.58-3.9-8.98,.27-2.46,.3-4.97,.85-7.36,.88-3.83,3.02-7.56,3.06-11.35,.26-28.72-.01-57.45,.34-86.17,.04-3.61,1.88-8.07,4.41-10.64,21.19-21.6,42.73-42.85,64.14-64.17-7.38-8.82-8.34-14.18-2.93-18.25,6.91-5.19,11.35-.32,15.84,5.44,8.96-9.07,17.3-18.27,26.45-26.58,9.34-8.49,16.38-19.02,26.37-27.02,10.04-8.04,18.49-18.05,27.64-27.2,3.84-3.84,8.71-7.1,11.31-11.65,4.8-8.41,9.43-15.52,19.28-19.76,6.34-2.73,12.49-9.03,11.36-19.04-.65-5.74,5.14-7.33,12.88-3.91,3.29-3.9,6.79-7.95,10.17-12.1,1.08-1.33,1.85-2.92,2.76-4.39-1.82-.49-3.62-1.2-5.48-1.41-2.03-.22-4.47,.72-6.08-.1-2.29-1.18-4.18-3.35-5.89-5.39-1.29-1.55-2.03-3.56-2.75-4.88,5.36-7.05,11.18-14.71,17-22.37,3.33,2.31,6.65,4.61,10.16,7.04,.56-.66,1.66-1.45,2.03-2.5,.47-1.3,.34-2.82,.47-4.21-2.57-.57-5.08-.51-6.79-1.64-3.88-2.56-3.72-2.8-5.7,1.52-9.17-.63-16.3-5.95-23.7-10.51-5.58-3.44-8.01-2.61-10.52,3.13-1.6,3.66-4.35,6.82-6.59,10.2-1.01-.53-2.01-1.06-3.02-1.58,1.23,.8,2.47,1.59,4.29,2.77-2.59,1.76-4.7,3.19-8.39,5.7-.46-12.92,2.6-23.11,6.65-32.91,.77-1.87,5.97-3.79,7.81-2.92,3.39,1.6,5.8,5.27,9.27,8.72,5.88,2.12,13.17,4.74,21.82,7.85-3.41-4.05-5.68-6.75-7.95-9.45,.45-.4,.89-.81,1.34-1.21-5.68-1.44-11.36-2.89-18.62-4.73,5.8-9.34,19.07-3.04,24.06-12.6-6.11-4.04-6.94-9.44-3.41-16.14-1.94,1.31-3.86,3.67-5.82,3.7-3.38,.04-6.78-1.36-10.17-2.16,1.46-3.15,2.26-8.28,4.52-9.04,4.34-1.45,9.51-.42,14.09-.42,2.1-2.05,4.99-4.87,7.88-7.69,.9,1.76,1.8,3.53,2.31,4.54,4.9-3.16,10.02-6.47,15.57-10.05-1.27-1.02-2.93-2.34-4.6-3.68-1.31,1.86-2.41,3.44-3.72,5.3-2.49-1.9-4.72-3.61-8.78-6.72,5.8-1.62,10.59-2.97,15.9-4.45-3.66-5.99-1.98-10.39,6.65-11.9-.28-.89-.55-1.78-.83-2.67-3.94-1.77-7.87-3.54-11.39-5.12-.95-2.33-1.41-5.9-3.42-7.48-1.24-.97-4.86,1.08-8.53,2.08-2.28-3.32-5.27-7.67-8.51-12.39,1.01-.74,2.61-1.9,4.89-3.57-14.76-14.64-29.35-29.05-43.87-43.52-17.77-17.71-35.42-35.55-53.32-53.13-2.15-2.11-5.52-2.97-8.44-4.47-1.44-2.68-2.53-6.39-4.91-8.85-12.23-12.65-24.7-25.06-37.31-37.34-1.93-1.88-5-2.59-7.85-3.99-.98-2.04-1.73-5.54-3.85-7.69-20.33-20.66-41.03-40.95-61.22-61.73-2.83-2.91-4.94-7.91-4.96-11.95-.29-79.18-.21-158.36-.21-237.54v-9.23c-2.19,.87-3.9,1.54-7.87,3.11,1.69-4.62,2.76-7.65,3.91-10.65,1.29-3.4,3.65-6.73,3.78-10.16,.47-12.12,.18-24.27,.18-37.56,3.07,0,5.8,0,8.52,0,97.81,0,195.62,.04,293.43-.12,5.4,0,9.13,1.58,12.8,5.45,9.59,10.14,19.58,19.89,28.23,28.6,4.57-3.34,8.2-6.62,12.44-8.61,.94-.44,5.99,4.01,5.73,5.66-.72,4.49-3.27,8.69-5.98,15.1,9.69,9.63,21.39,21.15,32.95,32.81,10.54,10.62,22.87,19.39,31.67,32.4,2.29-5.15,4.04-9.1,5.45-12.27-.99-3.05-2.82-5.88-2.38-8.29,.3-1.64,3.8-3.76,5.84-3.73,2.48,.04,4.93,2.11,7.4,3.3-.77,.48-1.54,.96-2.32,1.44,10.32,1.96,20.72,3.53,30.92,5.99,10.39,2.5,17.61,8.74,18.7,20.08,1.11,11.51-4.48,19.21-12.75,23.14-1.53,5.81-2.71,10.28-4.4,16.72,3.42,1.01,7.93,2.33,12.84,3.78-1.42,1.28-2.65,2.4-3.89,3.51,1.58,.94,3.17,1.87,4.74,2.82,1.45,.87,3.3,1.45,4.26,2.7,4.12,5.35,7.96,10.92,11.94,16.39,2.58,3.54,5.01,2.65,7.28-.38l-.24,.24Zm88.53,785.92q-3.92-10.33,1.55-14.43c-2.1,.17-5.18,.36-5.8,1.69-2.92,6.28-9.09,8.38-13.82,12.35-2.19,1.84-3.44,6.51-2.88,9.48,.6,3.19,3.8,5.9,6.42,9.6,4.58-5.89,9.22-11.87,14.52-18.69Zm129.43,164.18c5.69,1.9,11.7,3.91,19.03,6.37-3.2-6.14-5.86-11.23-8.46-16.23-4,3.73-7.26,6.78-10.57,9.86Zm24.83-67.59c3.32-5.37,7.22-10.33-1.45-14.69-1.52,1.05-3.14,2.18-4.38,3.04,1.99,3.98,3.79,7.58,5.83,11.65Zm-513.72-394.37c-9.78,1.15-11.32,4.84-5.84,13.71,2.07-4.86,3.82-8.96,5.84-13.71Zm745.9-106.52c-.35,1.2-.69,2.4-1.04,3.61,3.08,.89,6.26,2.6,9.2,2.25,1.18-.14,1.83-4.8,2.66-7.42,.04-.13-.56-.46-1.15-.91-1.22,1.89-2.37,3.68-2.95,4.59-2.61-.82-4.67-1.46-6.73-2.11Z" fill="#fff"/><path d="M505.42,1809.71c-38.07,38.08-74.45,74.52-110.98,110.81-1.59,1.58-4.52,2.55-6.82,2.55-110.77,.07-221.55,0-332.32-.05-.25,0-.5-.09-1.97-.38,0-2.46,0-5.17,0-7.88,0-107.67-.03-215.35,.15-323.02,0-3.48,1.15-7.94,3.46-10.28,33.82-34.26,67.93-68.23,101.99-102.26,.86-.86,1.92-1.53,4.03-3.19v333.7H505.42Z" fill="#fff"/><path d="M53.58,68.76c3.3,0,6.08,0,8.86,0,107.16,0,214.31,.04,321.47-.1,5.55,0,9.56,1.36,13.59,5.44,34.74,35.15,69.73,70.06,105.67,106.07H163.57v336.17c-3.16-2.63-4.9-3.87-6.4-5.36-33.15-33.11-66.33-66.18-99.28-99.49-2.4-2.43-4.37-6.55-4.38-9.89-.22-109.49-.18-218.98-.17-328.47,0-1.03,.11-2.06,.24-4.37Z" fill="#fff"/><path d="M1238.26,1610.02c.91-2.15,1.11-3.99,2.11-4.72,2.35-1.7,6.15-4.69,7.47-3.91,3.7,2.16,5.52,6.24,2.33,10.52-1.84,2.48-4.38,4.46-6.09,7.01-3.63,5.43-6.76,11.18-10.43,16.59-1.33,1.97-3.34,4.15-5.47,4.8-13.72,4.16-27.38,6.08-40.27-3.99-4.3,9.25-9.89,5.23-16.69,1.35,3.7-2.61,6.72-4.75,9.61-6.79-4.04-9.25-8.2-18.76-11.56-26.47,6.15-6.92,11.06-12.43,15.97-17.95-.48-.12-.96-.25-1.45-.37,.8-3.72,.43-8.93,2.73-10.74,2.19-1.72,7.17,.1,12.61,.49-2.67,3.34-3.87,4.85-3.73,4.67,1.99,3.33,3.08,5.97,4.89,7.97,1.97,2.17,5.51,5.81,6.83,5.24,13.38-5.77,19.97,3.92,27.57,11.37,1.2,1.18,2.02,2.75,3.57,4.92Z" fill="#fff"/><path d="M953.98,502.67c4.7,8.67,10.06,18.26,15.14,28,3.3,6.32,.27,10.9-4.92,14.42-5.17,3.51-10.08,1.71-12.53-3.03-4.56-8.84-8.4-18.13-11.56-27.56-.58-1.72,3.18-5.4,5.56-7.45,2.23-1.91,5.3-2.85,8.31-4.38Z" fill="#fff"/><path d="M864.24,558.1c-5.23-.94-6.06-5.49-6.16-9.25-.15-5.87,1-11.78,1.6-17.6-2.39-1.1-4.46-2.05-7.81-3.59,3.65-1.91,5.99-3.14,9.1-4.78-3.47-1.23-6.43-2.21-9.33-3.34-6.11-2.38-8.67-6.97-8.16-13.41,.47-5.91,3.58-8.12,9.41-7.12,3.25,.56,6.6,.59,11.1,.96-4.49,7.47,7.93,12.75,3.2,21.34,9.12,7.16,.1,12.99-1.24,19.49-1.18,5.73-1.35,11.68-1.96,17.54,0,0,.24-.24,.24-.24Z" fill="#fff"/><path d="M551.02,958.84c2.62,8.23-.72,14.14-6.41,20.07-4.1,4.28-6.54,10.15-10.59,16.73-1.52-4.91-2.9-9.41-4.29-13.9,1.01-.25,2.02-.51,3.03-.76-5.7-3.26-6.16-6.38-2.71-11.83,2.97-4.69,3.09-11.15,4.64-16.79,.45-1.62,1.48-3.08,3.11-6.35,1.97,3.84,3.83,6.21,4.41,8.87,1.31,5.99,3.81,7.31,8.81,3.97Z" fill="#fff"/><path d="M959.93,603.78c8.72,.44,11.07-8.64,20.07-7.83,10.64,.95,9.12,10.85,16.41,14.9-5.94,3.64-11.31,6.93-14.33,8.78-1.43,5.01-2.36,8.25-3.28,11.48-.98-.05-1.97-.1-2.95-.14-2.73-10.29-.46-23.44-15.92-27.19Z" fill="#fff"/><path d="M1077.65,1574.34c2.68,.39,5.36,.79,8.55,1.26-.41-2.43-1.29-4.52-.94-6.38,.43-2.34,1.41-5.01,3.08-6.48,.79-.69,3.75,1.11,5.73,1.77,2.3,.77,4.61,1.52,7.54,2.49-.93,1.02-2.04,2.23-3.15,3.44,9.32,10.22,9.59,11.91,3.11,22.72-3.96-3.31-7.68-6.8-11.78-9.75-3.97-2.84-8.35-5.12-12.55-7.65,.14-.47,.28-.95,.43-1.42Z" fill="#fff"/><path d="M1427.57,1059.44c-1.53-2.06-3.54-3.94-4.47-6.24-1.04-2.57-.56-5.79-1.74-8.25-1.09-2.27-3.24-4.47-5.48-5.54-.93-.45-3.35,2.05-5.01,3.32-1.4,1.08-2.52,2.96-4.04,3.33-1.62,.39-4.81-.15-5.12-1.04-.63-1.82-.58-5.09,.6-6.09,2.44-2.07,5.83-3,8.8-4.47,3.84-1.9,7.6-3.99,11.49-5.78,1.89-.87,4.93-2.36,5.84-1.61,1.74,1.43,3.86,5.23,3.15,6.36-5,7.92-2.79,16.15-1.11,24.44-.97,.52-1.95,1.04-2.92,1.57Z" fill="#fff"/><path d="M878.24,1489.94c-2.88-6.05-6.67-11.85-8.41-18.21-2.11-7.71,2.82-12.04,10.38-9.81,4.62,1.36,9.05,3.56,13.26,5.93,.68,.38,.03,5.23-.49,5.33-8.99,1.62-12.21,7.42-11.81,16.16-.98,.2-1.95,.4-2.93,.61Z" fill="#fff"/><path d="M1178.92,1564.8c-1.74,2.76-3.49,5.52-5.26,8.34,2.16,2.41,5.13,4.37,5.96,7.01,.86,2.69-.38,6.05-.69,9.12-2.77-.33-5.65-.29-8.26-1.12-2.07-.66-3.74-2.51-5.69-3.64-6.49-3.74-6.89-5.89-2.35-11.77,2.45-3.18,4.19-7.02,7.02-9.78,3.39-3.31,6.97-2.77,9.27,1.84Z" fill="#fff"/><path d="M1052.48,1573.02c-2.24-8.91-4.31-17.17-6.37-25.36,6.02-4.34,17.7-4.21,22.81,.64,1.12,1.06,.75,5.84,.5,5.89-9.66,1.81-9.41,11.5-13.99,17.24-.15,.18-.44,.25-2.95,1.59Z" fill="#fff"/><path d="M1273.31,1618.15c.15-1.02-.06-2.45,.48-2.84,2.13-1.56,4.5-2.8,6.79-4.15,.26,2.46,1.48,5.33,.63,7.31-3.41,7.94-3.82,10.11-.61,14.84-6.13,3.37-12.53,5.52-18.45,.94-2-1.54-2.75-6.68-1.89-9.52,1.77-5.91,6.68-8.04,13.06-6.57Z" fill="#fff"/><path d="M454.55,796.62c-2.57-1.37-4.88-2.6-7.71-4.11,7.18-4.3,20.76-2.23,23.58,3.78,1.58,3.36,1.95,9.22,0,11.78-1.98,2.61-7.95,4.15-11.26,3.14-2.54-.77-3.88-6.13-5.3-9.64-.5-1.22,.37-2.99,.68-4.96Z" fill="#fff"/><path d="M1097.06,1470.96c4.09-1.07,8.13-2.51,12.29-3.05,1.94-.25,4.98,.65,5.94,2.08,.99,1.47,.84,4.75-.18,6.35-5.75,9.02-19.56,10.26-27.22,2.6-1.52-1.52-2.41-3.69-3.59-5.55,1.87-.85,3.69-1.88,5.63-2.52,2.16-.72,4.44-1.09,6.67-1.61,.16,.57,.31,1.13,.47,1.7Z" fill="#fff"/><path d="M1160.94,1531.31c6.24,2.43,10.23,3.98,13.8,5.37,0,4.06,.13,8.15-.03,12.23-.31,7.79-7.75,12.78-13.69,9.26-3.33-1.98-5.39-4.69-1.85-7.96,3.35-3.09,2.63-5.87,1.31-9.62-.88-2.47,.2-5.63,.45-9.28Z" fill="#fff"/><path d="M906.13,503c-.14,3.93-4.02,6.01-9.11,6.01-5.76,0-9.99-2.43-10.15-8.99-.09-3.59-.36-7.26,.24-10.75,.26-1.51,2.46-3.75,3.87-3.81,6.88-.32,15,8.33,15.15,17.55Z" fill="#fff"/><path d="M1141.13,1560.25c1.29,.76,3.03,1.23,3.78,2.35,1.62,2.41,2.74,5.16,4.06,7.77-2.41,1.16-4.74,3.1-7.23,3.31-5.15,.44-11.92,4.95-14.34-5.32,2.43-1.99,5.33-4.39,8.24-6.78-.58-.06-1.15-.12-1.73-.17,.34-4.2,.52-8.43,1.28-12.56,.08-.44,5.05-.77,5.22-.27,1.24,3.6,1.84,7.43,2.64,11.19-.65,.16-1.29,.32-1.94,.49Z" fill="#fff"/><path d="M957.15,1547.52c6.84,3.68,10.84,9.85,17.73,11.02-.37,2.04-.09,4.79-1.3,5.92-1.07,.99-3.85,.36-5.82,.08-3.07-.44-6.07-1.45-9.14-1.74-3.03-.29-6.96,1.15-8.93-.29-1.66-1.22-2.37-6.29-1.18-8.22,1.78-2.89,5.6-4.52,8.65-6.76Z" fill="#fff"/><path d="M858.06,398.91c-.55-6.42-1.74-12.12-1.22-17.67,.26-2.8,3.46-7.26,5.64-7.45,2.58-.22,6.6,2.75,8.03,5.4,4.49,8.31,.76,14.12-12.44,19.72Z" fill="#fff"/><path d="M889.61,1699.78c-7.39,.49-13.5,1.4-19.53,1.06-2.43-.14-6.46-2.83-6.63-4.66-.25-2.64,1.64-6.46,3.86-8.17,5.73-4.41,12.22-2.93,16.72,3.05,1.67,2.23,3.02,4.69,5.58,8.72Z" fill="#fff"/><path d="M977.21,1596.96c-1.29-1.68-4.97-4.46-5.68-7.85-1.13-5.45,6.11-11.53,12.19-11.24,5.08,.24,8.28,2.63,8.07,8.18-.23,5.86-5.9,11.07-14.58,10.92Z" fill="#fff"/><path d="M1034.54,425.05c0-7.05-.37-14.12,.12-21.13,.38-5.49,3.94-6.05,8.2-3.52,7.1,4.2,8.26,13.2,2.34,18.86-2.38,2.28-5.15,4.15-7.75,6.21-.97-.14-1.95-.28-2.92-.42Z" fill="#fff"/><path d="M377.52,706.33c-8.13,.5-14.24,1.27-20.31,1.04-2.29-.09-6.06-2.24-6.35-3.93-.43-2.53,.84-6.39,2.78-8.06,4.71-4.05,10.33-4.88,15.23,.05,2.67,2.7,4.78,5.96,8.66,10.9Z" fill="#fff"/><path d="M1004.73,576.77c-1.25,7.1-6.7,12.52-11.84,11.99-4.98-.51-8.83-2.91-9.18-8.52-.33-5.36,4.88-10.67,10.48-9.53,3.77,.76,7.04,3.96,10.53,6.07Z" fill="#fff"/><path d="M1217.46,1539.67c.19,.19,.38,.38,.56,.56-1.81,1.45-4.72,4.49-5.26,4.12-5.03-3.48-6.53-1.09-7.67,3.57-.45,1.83-2.06,3.38-3.01,4.84-2.25-1.44-4.53-2.89-8.69-5.56,2.55-4.25,5.3-9.55,8.86-14.24,.83-1.09,4.41-.08,6.73-.03-.19,6.04,6.12,3.9,8.48,6.74Z" fill="#fff"/><path d="M1117.19,1560.19h8.33c-.77,2.18-1.78,3.75-1.81,5.34-.09,4.95,.91,10.03,.05,14.8-.44,2.44-3.94,4.33-6.06,6.48-1.2-3.08-3.47-6.2-3.36-9.23,.21-5.73,1.78-11.41,2.84-17.39Z" fill="#fff"/><path d="M1045.16,1420.04c.53-5.4,.99-10.14,1.45-14.88,.13,.06,.26,.12,.4,.18-.27-4.45-1.11-8.99-.34-13.25,.15-.84,6.49-.56,12.57-.97-2.69,5.54-4.78,8.78-5.81,12.33-.91,3.14-1.52,6.86-.71,9.91,1.55,5.89-1.41,6.57-7.55,6.69Z" fill="#fff"/><path d="M1423.47,1070.86c.86,2.29,1.15,4.09,2.1,5.4,2.23,3.07,6.33,6.93,.58,9.05-5.03,1.85-11.12,.83-16.74,1.07,.58-2.91,.18-6.89,1.94-8.51,3.26-3,7.79-4.63,12.12-7.01Z" fill="#fff"/><path d="M935.26,611.2c-.7-3.53-1.22-6.13-2-10.05,6.38,3.53,11.34,4.25,15.79-1.31,.59-.74,7.2,1.27,7.58,2.84,.91,3.73-.26,7.96-.58,11.98-2.52-.93-6.31-1.13-7.34-2.92-3.69-6.44-7.71-3.85-13.45-.54Z" fill="#fff"/><path d="M1475.69,1060.37c-3.12,2.33-5.97,5.9-9.44,6.68-4.54,1.01-7.94-2.31-8.06-7.24-.11-4.91,2.39-9.34,7.5-8.91,3.44,.29,6.61,3.8,9.9,5.86,.03,1.2,.06,2.41,.09,3.61Z" fill="#fff"/><path d="M658.12,1689.01c2.25,3.15,6.07,6.16,6.37,9.48,.44,4.83-3.19,9.51-8.55,8.39-2.91-.61-6.8-5.09-6.94-8-.16-3.18,3.47-6.56,5.45-9.85l3.68-.02Z" fill="#fff"/><path d="M902.43,1416.72c-2.82,1.99-5.49,4.27-8.52,5.86-2.11,1.11-4.72,1.29-7.34,1.94-1.12-2.84-2.73-6.93-4.62-11.75,2.16-1.38,4.3-3.34,6.81-4.23,4.06-1.44,8.39-2.5,8.71,4.42,.04,.95,2.59,1.79,3.97,2.68,.3,.39,.63,.74,.98,1.07Z" fill="#fff"/><path d="M968.56,1346.93c4.7,3.15,9.21,5.84,5.58,12.84-.98,1.89,.85,5.07,.28,7.38-.43,1.76-2.5,4.11-4.06,4.3-1.58,.19-4.81-1.82-4.95-3.11-.76-7.06-4.42-14.65,3.15-21.42Z" fill="#fff"/><path d="M598.52,927.16c-3.48,8.8-8.37,12.38-15.68,7.41-4.99-3.39-9.13-8.01-14.35-12.7,10.38,1.83,19.9,3.51,30.03,5.29Z" fill="#fff"/><path d="M1358.7,1680.43c-2.14-3.17-5.67-6.17-6.08-9.56-.55-4.5,2.55-8.51,7.87-8.39,4.99,.11,8.78,3.3,7.93,8.24-.6,3.49-4.05,6.48-6.23,9.7-1.16,0-2.33,0-3.49,.01Z" fill="#fff"/><path d="M859.6,1660.05c-3.13,2.27-6.01,5.81-9.46,6.49-4.46,.88-7.82-2.31-7.87-7.36-.06-5.05,2.58-9.23,7.57-8.77,3.4,.31,6.49,3.9,9.72,6.02,.01,1.21,.02,2.41,.04,3.62Z" fill="#fff"/><path d="M1150.51,1705.83c-3.15,2.35-6.26,6.43-9.46,6.5-2.67,.06-7.09-4.2-7.79-7.22-1.04-4.48,2.01-9.22,7.33-8.56,3.48,.44,6.6,3.78,9.89,5.82,.01,1.15,.03,2.3,.04,3.46Z" fill="#fff"/><path d="M992.6,507.06c-1.11-1.69-4.27-4.35-4.42-7.17-.3-5.65,3.59-8.69,9.32-8.97,4.8-.23,7.51,2.28,7.16,6.88-.42,5.5-3.68,8.83-12.05,9.26Z" fill="#fff"/><path d="M1157.42,1709.29c3-2.25,5.74-5.78,9.05-6.44,4.66-.92,9.32,2.37,8.55,7.24-.51,3.23-4.63,7.52-7.81,8.2-2.71,.58-6.38-3.31-9.63-5.22-.05-1.26-.11-2.52-.16-3.78Z" fill="#fff"/><path d="M1135.74,1584.13c4.6,3.15,7.9,5.04,10.75,7.45,5.09,4.29,4.43,9.8-1.24,13.25-4.18,2.55-6.8,1.45-7.95-3.22-.43-1.75-.81-3.53-.95-5.32-.28-3.54-.37-7.1-.62-12.16Z" fill="#fff"/><path d="M1075.33,1466.5c1.79,3.35,3.49,5.08,3.46,6.78-.06,3.94-.48,8.03-1.71,11.75-.63,1.9-3.32,3.13-5.07,4.66-2-4.68-5.2-9.29-5.49-14.07-.15-2.47,4.89-5.26,8.82-9.12Z" fill="#fff"/><path d="M1079.44,1423.48c-4.39-.04-8.79,.13-13.16-.21-2.09-.17-4.24-1.09-6.03-2.21-.35-.22,.85-4.24,1.32-4.24,2,.01,4,.88,5.4,1.26,2.56-2.51,5.13-5.91,8.53-7.86,1.11-.64,6.11,2.27,6.28,3.89,.33,3.05-1.55,6.34-2.52,9.54-.01,.01,.18-.18,.18-.18Z" fill="#fff"/><path d="M1067.69,1452.1c-5.92-1.42-10.97-2.05-15.44-4-1.67-.73-3.4-5.4-2.59-6.74,1.24-2.04,5.03-4.21,7.12-3.72,5.93,1.4,10.69,4.85,10.91,14.46Z" fill="#fff"/><path d="M970.72,1376.8c1.83,6.37,3.43,11.93,5.02,17.45-4.68,.78-15.64-7.3-15.32-12.11,.46-6.88,5.58-5.83,10.3-5.34Z" fill="#fff"/><path d="M906.8,1393.64c-1.11-4.87-2.21-9.66-3.39-14.82,2.05-.95,3.86-2.43,5.7-2.49,2.66-.08,5.36,.87,8.04,1.38-.81,3.44-1.02,7.21-2.65,10.21-1.16,2.14-4.22,3.25-7.7,5.72Z" fill="#fff"/><path d="M1267.53,1649.47c-2.21,3.7-4.07,7.67-6.74,11.01-2.7,3.39-6.16,3.47-9.21-.05-3.18-3.67-2.3-6.79,1.75-8.73,3.97-1.9,8.25-3.18,12.39-4.72,.6,.83,1.21,1.66,1.81,2.49Z" fill="#fff"/><path d="M947.04,1421.2c-2.89,4.23-5.79,8.47-9.05,13.24,2.33,.8,4.34,1.5,8.36,2.88-3.91,2.14-6.58,3.6-10.26,5.61v-6.67c-2-.5-4.28-1.08-9.3-2.34,7.19-5.72,12.74-10.14,18.29-14.56,.65,.61,1.31,1.22,1.96,1.83Z" fill="#fff"/><path d="M563.28,1052.83c0,6.99,.21,12.26-.14,17.5-.09,1.32-1.99,3.58-3.01,3.56-2.29-.05-5.16-.68-6.63-2.2-1.18-1.22-1.22-4.24-.72-6.2,.72-2.82,1.97-5.73,3.77-7.96,1.57-1.95,4.23-3.02,6.74-4.7Z" fill="#fff"/><path d="M895.08,511.44c2.85,3.55,5.99,6.42,7.68,9.97,1.06,2.22-.05,5.47-.18,8.26-2.6-.98-6.07-1.23-7.64-3.09-5.66-6.65-5.42-11.81,.14-15.15Z" fill="#fff"/><path d="M532.91,1099.82c-4.15,3.15-7.63,6.5-8.16,6.08-3.11-2.43-6.11-5.46-7.85-8.94-.55-1.1,2.86-4.19,4.46-6.37,3.27,2.62,6.54,5.23,11.55,9.23Z" fill="#fff"/><path d="M1233.97,1575c4.58,3.24,8.1,5.73,11.62,8.22-2.36,2.6-4.71,5.2-7.07,7.79-2.77-3.31-5.76-6.46-8.09-10.05-.44-.68,1.77-3.08,3.55-5.96Z" fill="#fff"/><path d="M931.89,610.09c3.73,2.13,7.46,4.26,11.5,6.57-2.11,5.12-4.45,11.9-9.91,9.39-3.11-1.42-2.99-9.87-4.32-15.16,.91-.27,1.82-.54,2.73-.8Z" fill="#fff"/><path d="M471.85,1009.99c2.38-2.49,4.53-5.88,7.6-7.6,2.14-1.2,6.6-1.19,8.1,.26,1.45,1.41,1.54,6.17,.21,7.95-1.27,1.71-5.16,2.05-7.86,1.96-2.54-.09-5.02-1.54-8.06-2.58Z" fill="#fff"/><path d="M985.56,1368.9c1.92,6.05,3.83,12.09,5.75,18.14l-2.89,2.06c-3.15-2.58-6.31-5.17-9.46-7.75,4.34-2.91-1.81-11.71,6.85-12.21,0,0-.25-.24-.25-.24Z" fill="#fff"/><path d="M494.79,973.19c11.01-3.46,11.84,6.56,17.11,10.82-8,5.42-13.53,3.62-17.11-10.82Z" fill="#fff"/><path d="M1017.3,1426.55c1.12-5.47,1.27-8.65,2.52-11.31,.73-1.55,3.41-3.38,4.9-3.13,4.17,.69,8.17,2.39,13.98,4.24-6.97,3.32-13.26,6.32-21.4,10.19Z" fill="#fff"/><path d="M448.63,931.25c-3.14-3.99-6.94-7.44-6.4-8.37,1.69-2.9,4.76-5.45,7.87-6.75,.87-.36,5.41,4.21,5.27,6.3-.18,2.55-3.53,4.89-6.74,8.81Z" fill="#fff"/><path d="M739.6,1558.37c2.85,5.11,5.43,8.02,5.83,11.21,.2,1.55-4.88,5.52-5.49,5.13-2.91-1.85-6.07-4.48-7.13-7.54-.52-1.49,3.33-4.51,6.79-8.8Z" fill="#fff"/><path d="M903.98,553.2c-4.48,3.5-6.99,6.77-10,7.32-1.68,.31-4.18-3.91-6.31-6.09,2.61-2.41,4.9-5.55,7.98-6.88,1.28-.55,4.22,2.74,8.34,5.65Z" fill="#fff"/><path d="M1040.53,1440.31c-3.68,2.73-6.95,6.09-7.75,5.58-3.07-1.96-5.35-5.16-7.93-7.9,2.41-1.83,5.05-5.34,7.18-5.05,2.59,.35,4.74,3.9,8.5,7.38Z" fill="#fff"/><path d="M878.42,448.6c2.85,2.71,4.92,4.68,7,6.65-2.33,1.99-4.85,5.77-6.95,5.54-3.16-.34-6.02-3.47-9.01-5.42,2.62-1.98,5.25-3.97,8.96-6.78Z" fill="#fff"/><path d="M1117.59,1629.59c-3.16-4.73-6.15-8.66-8.42-12.98-.6-1.14,1.19-5.02,1.66-4.98,2.57,.2,6.13,.46,7.41,2.15,3.52,4.66,2.9,9.9-.66,15.8Z" fill="#fff"/><path d="M811.88,333.91c4.07-3.12,8.45-6.75,12.74-.78,1.15,1.6-.44,5.18-.78,7.85-4.28-1.3-8.57-2.6-12.85-3.89,.3-1.06,.59-2.12,.89-3.18Z" fill="#fff"/><path d="M912.47,1435.4c-.44,4.5-.1,8.03-1.28,10.92-.92,2.24-3.56,4.07-5.86,5.27-.62,.32-4-2.36-3.99-3.65,.02-2.77,.76-6.05,2.44-8.14,1.52-1.89,4.68-2.48,8.7-4.4Z" fill="#fff"/><path d="M982.34,1527.96c6.46,1.54,9.68,5.27,7.06,11.17-.85,1.92-6.56,3.96-7.91,2.99-6.65-4.8,.17-9.29,.85-14.16Z" fill="#fff"/><path d="M991.56,1456.66c-4.43,1.2-8.31,2.26-12.19,3.31l1.04-2.86c-2.55-4.19-5.09-8.37-7.64-12.56,.71-.51,1.42-1.03,2.14-1.54,5.36,4.4,10.73,8.8,16.65,13.66Z" fill="#fff"/><path d="M516.04,939.84c-1.09,6.37-1.18,12.21-8.18,10.99-1.9-.33-4.66-5.01-4.31-7.27,1.44-9.25,7.61-2.31,12.49-3.72Z" fill="#fff"/><path d="M527.25,1058.83c-3.32,3.47-6.09,6.36-8.93,9.34-3.91-3.51-8.27-6.63-4.02-11.61,4.42-5.18,8.13-.54,12.96,2.28Z" fill="#fff"/><path d="M1134.35,1521.32c3.24-1.09,5.95-2.72,8.65-2.71,2.65,0,5.69,1.17,7.75,2.83,.84,.67,0,5.55-.89,5.82-2.57,.79-5.86,.95-8.3-.04-2.64-1.07-4.65-3.72-7.2-5.91Z" fill="#fff"/><path d="M985.81,1369.14v-16.55c6.89,3.46,8.86,7.84,7.47,13.61-1.08,4.44-4.28,4.32-7.73,2.7,.01,0,.26,.25,.26,.25Z" fill="#fff"/><path d="M1146.42,1631.38c3.84-2.94,6.36-5.7,9.49-6.97,2.07-.84,5.42-.17,7.41,1.08,1.22,.77,.96,3.9,1.37,5.96-2.38,.44-4.75,1.24-7.13,1.22-3.13-.02-6.26-.69-11.15-1.29Z" fill="#fff"/><path d="M511.82,913.27c9.36-2.22,13.25-.07,12,6.23-.35,1.75-1.79,4.17-3.22,4.57-1.28,.36-3.75-1.24-4.76-2.65-1.71-2.4-2.68-5.32-4.02-8.15Z" fill="#fff"/><path d="M921.7,1454.03c3.16,7.99,.98,12.1-4.6,13.44-1.74,.42-4.36-2.87-6.58-4.46,3.53-2.83,7.06-5.66,11.18-8.97Z" fill="#fff"/><path d="M1042.28,1504.81c-2.74-5.97-4.35-11.34,3.81-12.32,1.7-.2,5.11,2.04,5.34,3.53,1.07,6.87-4.49,7.42-9.15,8.79Z" fill="#fff"/><path d="M803.15,422.49c-4.39,4.09-8.19,7.66-12.95,2.53-1.18-1.27-1.46-5.38-.41-6.38,5.72-5.52,8.91,.26,13.36,3.85Z" fill="#fff"/><path d="M987.02,1481.21c-3.29,2.83-5.46,4.69-7.62,6.55-1.48-2.1-4.35-4.4-4.08-6.24,.34-2.36,3.21-4.36,4.99-6.51,1.87,1.73,3.74,3.45,6.72,6.21Z" fill="#fff"/><path d="M1382.99,996.29c-2.17-9.13-3.41-9.74-12.28-6.59,2.07-2.17,3.89-4.74,6.33-6.35,1.17-.77,4.28-.4,5.22,.63,2.55,2.8,4.41,6.22,6.54,9.4-2.03,.87-4.06,1.74-6.09,2.62,0,0,.27,.29,.27,.29Z" fill="#fff"/><path d="M1483.21,1170.82c3.27-2.54,5.84-4.53,10.72-8.31,.76,5.51,2.99,11.4,1.48,12.6-4.23,3.37-8.45,.5-12.19-4.29Z" fill="#fff"/><path d="M1045.98,1481.51c-1.55,7.19-3.98,11.61-9.72,8.13-1.75-1.06-2.1-4.41-3.1-6.71,4.27-.47,8.55-.95,12.82-1.42Z" fill="#fff"/><path d="M1430.33,960.88c-5.34-.86-9.93-1.68-8.26-7.31,.67-2.25,5.32-5.52,6.85-4.93,6.87,2.64,1.96,7.35,1.41,12.24Z" fill="#fff"/><path d="M562.7,347.91c2.98,3.61,6.15,5.85,5.86,7.48-.42,2.34-3.03,5-5.36,5.97-1.03,.43-5.13-2.9-5.18-4.6-.07-2.35,2.37-4.78,4.69-8.86Z" fill="#fff"/><path d="M973.04,341.22c2.72,3.83,5.78,6.39,5.32,7.89-.69,2.27-3.6,4.71-6,5.29-1.27,.3-4.96-3.29-4.84-4.94,.16-2.33,2.83-4.48,5.52-8.23Z" fill="#fff"/><path d="M1219.27,1566.66c-3.94,2.71-6.36,5.57-7.91,5.16-2.3-.61-4.82-3.28-5.55-5.61-.35-1.11,3.19-4.88,4.97-4.87,2.24,0,4.47,2.63,8.49,5.32Z" fill="#fff"/><path d="M1008.4,560.98c-.41-3.24-1.45-6.58-.95-9.67,.22-1.36,3.45-2.7,5.51-3.14,1.42-.3,3.86,.52,4.58,1.65,.7,1.1,.32,3.58-.51,4.84-1.63,2.48-3.9,4.53-5.91,6.76l-2.72-.43Z" fill="#fff"/><path d="M1614.36,1243.73c-4.11,2.85-6.31,5.46-8.72,5.67-1.67,.14-3.62-3.04-5.44-4.74,1.94-1.99,3.61-4.98,5.93-5.64,1.64-.46,4.17,2.24,8.24,4.7Z" fill="#fff"/><path d="M489.93,1077.81c3.61,5.3,6.7,9.84,10.68,15.69-12.37-1.88-15.06-5.96-10.68-15.69Z" fill="#fff"/><path d="M577.12,949.15c-2.6-4.45-5.31-7.07-4.8-8.67,.79-2.5,3.76-4.3,5.81-6.4,1.53,1.7,4.51,3.61,4.29,5.06-.4,2.76-2.62,5.25-5.3,10.01Z" fill="#fff"/><path d="M1289.15,1650.42c-4.01,2.26-6.3,4.49-8.67,4.58-1.61,.06-4.99-3.9-4.72-4.34,1.51-2.52,3.58-5.16,6.13-6.35,.93-.44,3.67,3,7.27,6.12Z" fill="#fff"/><path d="M1063.89,1604.19c-3.74,2.85-5.92,5.22-8.6,6.15-.89,.31-4.7-4.1-4.38-4.61,1.58-2.52,3.84-4.89,6.42-6.34,.76-.43,3.31,2.35,6.56,4.8Z" fill="#fff"/><path d="M964.82,1444.04c-3.69,2.72-5.89,5.56-7.54,5.27-2.33-.41-4.26-3.13-6.36-4.87,2.04-1.88,3.84-4.68,6.2-5.3,1.55-.4,3.92,2.36,7.7,4.89Z" fill="#fff"/><path d="M1229.25,1570.73c2.62-3.35,4.09-5.24,5.56-7.13,2.44,3.19,4.87,6.38,7.31,9.57-4.75,.22-8.05,.24-11.33,.56-1.9,.18-3.75,.89-5.65,1.16-.12,.02-.81-2.43-.69-2.48,1.74-.76,3.58-1.31,5.4-1.92,.47-.16,.92-.36-.61,.24Z" fill="#fff"/><path d="M1027.69,1455.01c2.15,3.77,4.55,6.2,4.04,7.47-1.05,2.63-3.64,4.65-5.6,6.91-1.58-1.73-4.72-3.83-4.41-5.1,.67-2.76,3.1-5.09,5.97-9.28Z" fill="#fff"/><path d="M948.73,1450.85c-3.38,2.76-5.34,5.09-7.82,5.98-.86,.31-4.57-3.42-4.25-4.53,.79-2.75,3.14-5.05,4.87-7.53,1.95,1.65,3.91,3.3,7.21,6.08Z" fill="#fff"/><path d="M1040.56,1449.12c3.05,1.09,6.09,2.18,10.63,3.81,.19,2.25,.5,5.88,.81,9.51-.77,.42-1.53,.85-2.3,1.27-3.6-4.4-7.21-8.8-10.81-13.19,.56-.47,1.11-.93,1.67-1.4Z" fill="#fff"/><path d="M1627.31,578.52c-4.82,2.71-7.34,4.89-10.12,5.33-1.2,.19-4.58-4.12-4.17-4.87,1.23-2.29,3.61-4.81,5.98-5.35,1.71-.38,4.1,2.27,8.32,4.89Z" fill="#fff"/><path d="M1261.01,1683.23c-3.81,2.24-6.75,4.81-7.53,4.27-2.39-1.67-4.22-4.38-5.58-7.04-.24-.47,3.46-4.09,4.25-3.74,2.71,1.18,4.94,3.47,8.86,6.52Z" fill="#fff"/><path d="M991.16,1349.74c2.91-2.54,4.71-4.89,7.05-5.74,.85-.31,4.62,3.65,4.27,4.43-1.22,2.76-3.65,4.98-5.62,7.41-1.54-1.65-3.07-3.29-5.7-6.1Z" fill="#fff"/><path d="M902.43,1416.72c-.36-.33-.69-.68-.98-1.07-1.53-6.17,4.99-6.16,6.83-6.08,3.13,.14,6.12,3.27,9.17,5.14-.32,.67-.64,1.34-.96,2.01h-14.05Z" fill="#fff"/><path d="M1079.48,1588.92c-3.64,3-5.73,4.72-7.83,6.45-1.46-2.42-3.73-4.74-4.06-7.3-.2-1.55,3.11-5.18,4-4.93,2.37,.68,4.28,2.95,7.89,5.78Z" fill="#fff"/><path d="M933.7,427.39c-2.3-4.23-4.67-6.68-4.16-8.08,.87-2.38,3.55-4.09,5.47-6.08,1.43,1.78,4.18,3.72,3.99,5.3-.29,2.43-2.61,4.62-5.3,8.86Z" fill="#fff"/><path d="M950.96,583.08c2.53,3.22,5.51,5.42,5.23,7.07-.33,1.93-3.76,4.95-5.36,4.67-2.3-.39-4.17-3.33-6.23-5.18,1.74-1.8,3.49-3.6,6.36-6.56Z" fill="#fff"/><path d="M1198.37,1668.02c-3.79,2.51-5.97,4.71-8.52,5.29-1.07,.24-4.47-3.82-4.13-4.43,1.31-2.36,3.43-4.76,5.83-5.8,1.02-.44,3.48,2.42,6.82,4.94Z" fill="#fff"/><path d="M933.56,577.57c-3.45,.36-6.89,.73-12.63,1.33,1.95-4.27,3.33-7.3,4.71-10.33,3.05,2.05,6.1,4.1,9.14,6.15-.41,.95-.82,1.89-1.23,2.84Z" fill="#fff"/><path d="M488.26,938.13c6.34-2.09,10.72-2.84,11.95,2.66,.42,1.88-2.47,4.48-3.85,6.76-2.49-2.9-4.98-5.79-8.09-9.42Z" fill="#fff"/><path d="M1390.82,915.25c2.14,3.98,4.56,8.15-.37,11.87-.99,.75-3.54-.57-5.37-.93,.79-3.93,1.59-7.86,2.38-11.79,1.12,.28,2.24,.57,3.36,.85Z" fill="#fff"/><path d="M1533.06,785.07c-5.68,5.04-5.92,4.95-13.05-4.79,6.2-2.85,7.3-2.44,13.05,4.79Z" fill="#fff"/><path d="M1286.84,1624.39c2.89,2.27,4.67,3.67,6.45,5.06-1.92,2.04-3.59,5.24-5.85,5.74-1.62,.36-4.04-2.89-6.1-4.54,1.62-1.84,3.23-3.68,5.5-6.26Z" fill="#fff"/><path d="M1444.7,1046.87c3.59-2.56,6.95-4.94,10.31-7.33,.81,.35,1.61,.7,2.42,1.06-.73,2.86-.57,6.71-2.39,8.37-3.25,2.95-7.34,2.85-10.33-2.09Z" fill="#fff"/><path d="M1059.77,1427.07c-5.83,11.38-11.34,2.94-16.8-1,5.1,.31,10.2,.61,16.8,1Z" fill="#fff"/><path d="M922.19,509.29c-.72,4.16-1.44,8.32-2.16,12.49-1.63-.79-3.87-1.14-4.77-2.44-3.87-5.54,.46-8.07,4.12-10.72,.94,.22,1.88,.45,2.81,.67Z" fill="#fff"/><path d="M764.16,422.43c-3.69-6.91,2.21-9.28,5.67-12.93,4.78,6.31,3.97,8.12-5.67,12.93Z" fill="#fff"/><path d="M1136.25,375.08c4.12,2.14,8.24,4.29,13.75,7.15-9.61,6.35-11.7-.38-15.05-4.22,.43-.98,.86-1.96,1.29-2.93Z" fill="#fff"/><path d="M524.4,1122.57c-2.76-3.34-4.76-5.31-6.01-7.68-.24-.45,3.04-3.79,3.66-3.51,2.53,1.15,4.8,3.04,6.73,5.08,.24,.26-2.1,2.97-4.38,6.11Z" fill="#fff"/><path d="M902.82,396.02c4.24,1.88,8.47,3.77,13.33,5.92-6.86,6.59-8.27,6.04-14.26-3.81,.31-.7,.62-1.41,.94-2.11Z" fill="#fff"/><path d="M894,1517.6c3.73-3.25,6.63-5.79,9.54-8.33,.91,1.59,2.85,3.43,2.54,4.72-1.29,5.34-4.89,6.72-12.08,3.61Z" fill="#fff"/><path d="M1062.86,1483.08c-2.84,1.24-5.13,2.24-8.95,3.9-.28-4.85-.51-8.74-.73-12.63,.81-.3,1.61-.6,2.42-.9,2.27,3.01,4.55,6.03,7.26,9.62Z" fill="#fff"/><path d="M523.1,868.07c4.36,.59,7.74,1.05,11.12,1.51-1.05,1.97-1.61,4.88-3.24,5.74-5,2.62-6.58-.76-7.88-7.25Z" fill="#fff"/><path d="M923.88,1491.24c-.31,4.26-.55,7.62-.8,10.98-2.08-.82-5.12-1.05-6.05-2.57-2.8-4.6,.09-6.82,6.84-8.41Z" fill="#fff"/><path d="M878.72,407.98c3.28,.5,6.56,.99,9.84,1.49-1.23,2.07-2.4,5.82-3.71,5.87-2.53,.1-5.13-1.89-7.71-3.01,.52-1.45,1.05-2.9,1.57-4.34Z" fill="#fff"/><path d="M900.92,359.6c-2.79,1.54-5.58,3.09-10.61,5.87,.34-4.77,.55-7.64,.75-10.51,3.26,.65,6.53,1.31,9.79,1.96,.02,.9,.04,1.79,.06,2.69Z" fill="#fff"/><path d="M962.81,558.78c-.31,2.39-.01,5.12-1.1,7.07-1.17,2.1-3.65,3.47-5.99,5.54-.85-2.45-1.68-4.83-2.44-7,2.57-2.03,5.03-3.98,7.49-5.92l2.04,.31Z" fill="#fff"/><path d="M1546.99,1150.21c-.53,3.28-1.06,6.55-1.59,9.83-2.04-1.23-5.7-2.37-5.78-3.71-.14-2.48,1.83-5.07,2.92-7.61,1.48,.5,2.97,1,4.45,1.49Z" fill="#fff"/><path d="M341.21,1406.15c-2.34,2.54-4.04,4.38-5.74,6.21-1.24-1.94-3.63-3.99-3.45-5.78,.24-2.28,2.56-4.33,3.99-6.49,1.47,1.72,2.94,3.43,5.19,6.05Z" fill="#fff"/><path d="M986.4,476.58c-9.03,.46-11.72-3.6-11.66-14.45,3.72,4.61,7.18,8.91,11.66,14.45Z" fill="#fff"/><path d="M949.38,1456.35c.79,3.21,1.98,5.65,1.77,7.96-.17,1.96-1.78,3.93-3.15,5.56-.4,.48-3.02,.08-3.15-.35-.45-1.5-.72-3.38-.18-4.78,.9-2.38,2.47-4.51,4.71-8.39Z" fill="#fff"/><path d="M1446.06,998.89c-1.71-3.53-3.41-7.05-5.12-10.58,8.26-.02,9.27,3.9,7.86,9.19-.91,.46-1.82,.93-2.74,1.39Z" fill="#fff"/><path d="M552.08,988.28c-1.46-1.59-2.93-3.18-5.8-6.29,3.89-1.53,6.69-2.63,9.5-3.73-.44,3.33-.89,6.67-1.33,10-.79,0-1.58,.01-2.37,.02Z" fill="#fff"/><path d="M1041.42,1641.76c-1.52-3.38-2.53-5.65-4.48-10,5.15,1.53,8.61,2.56,12.06,3.59,0,.82,0,1.64,0,2.46-2.3,1.19-4.59,2.39-7.58,3.94Z" fill="#fff"/><path d="M1401.77,900.72c-.32,3.53,.65,8.18-1.23,10.36-3.16,3.64-6.52-.57-3.97-5.6,.85-1.67,1.82-3.29,2.73-4.93,.82,.06,1.64,.11,2.47,.17Z" fill="#fff"/><path d="M1395.03,944.59c3.16,1.36,6.44,2.52,9.31,4.35,.36,.23-1.53,3.98-2.81,7.18-3.25-3.69-5.55-6.3-7.85-8.91l1.35-2.62Z" fill="#fff"/><path d="M1177.4,1531.42c2.08-2.99,4.16-5.98,6.24-8.98,.78,.19,1.57,.39,2.35,.58,0,2.87,.93,6.27-.31,8.42-.92,1.61-4.65,1.61-7.12,2.33-.39-.79-.78-1.57-1.17-2.36Z" fill="#fff"/><path d="M1036.83,1523.28c-2.51-1.08-5.02-2.16-8.25-3.56,1.69-1.94,3.39-3.88,6.44-7.36,1.9,4.64,3.14,7.67,4.38,10.69l-2.57,.23Z" fill="#fff"/><path d="M967.42,507.31c3.27-1.51,6.55-3.01,9.82-4.52l1.73,4.36c-3.34,1.26-6.69,2.52-10.03,3.78-.51-1.21-1.01-2.41-1.52-3.62Z" fill="#fff"/><path d="M528.75,1009.18q-5.39-7.26,3.43-14.79c-1.27,5.47-2.21,9.54-3.43,14.79Z" fill="#fff"/><path d="M1284.28,1687.74h-12.61c5.33-7.5,8.77-7.4,12.61,0Z" fill="#fff"/><path d="M574.92,997.99c-1.93-2.15-3.85-4.3-6.3-7.04,2.3-1.8,4.15-3.24,7.34-5.73,.58,4.94,.98,8.38,1.38,11.81l-2.42,.96Z" fill="#fff"/><path d="M1443.41,972.74c-2.53-.14-5.01-.27-9.51-.51,2.94-4.37,5.02-7.47,7.77-11.55,.69,4.78,1.15,8,1.74,12.07Z" fill="#fff"/><path d="M1398.06,1021.36c1.97,2.61,3.11,4.12,4.95,6.56-4.3,.7-7.88,1.29-11.46,1.87-.29-.71-.58-1.43-.87-2.14,2.3-1.96,4.6-3.92,7.38-6.29Z" fill="#fff"/></svg>